<svg width="22" height="23" viewBox="0 0 22 23" fill="none" xmlns="http://www.w3.org/2000/svg">
<path d="M7.3684 3.9353C6.66943 3.9353 4.56213 4.79018 4.18406 4.96102C3.80599 5.13187 3.38635 5.66519 2.91019 6.54539C2.43339 7.4256 2.05077 8.45457 1.42911 9.96814C0.808088 11.4817 0.663228 14.3997 0.684015 15.2903C0.704802 16.1809 0.806789 16.8766 1.71948 17.4035C2.63152 17.9296 3.43832 18.4805 4.28735 18.8118C5.13702 19.1431 5.71647 19.3815 6.11012 19.0502C6.50378 18.7189 6.76297 18.1388 6.76297 18.1388C6.76297 18.1388 7.13584 17.6211 6.43168 17.3106C5.72751 16.9994 5.37543 16.7818 5.40596 16.4609C5.43714 16.14 5.48846 15.9639 5.6645 16.0055C5.84054 16.0471 6.25563 16.7922 7.8504 17.1339C9.44517 17.4756 10.9997 17.4242 10.9997 17.4242C10.9997 17.4242 12.5548 17.4762 14.1496 17.1339C15.7443 16.7922 16.1588 16.0471 16.3348 16.0055C16.5109 15.9639 16.5622 16.14 16.5934 16.4602C16.6245 16.7818 16.2725 16.9994 15.5683 17.3106C14.8641 17.6211 15.237 18.1388 15.237 18.1388C15.237 18.1388 15.4962 18.7182 15.8899 19.0502C16.2829 19.3815 16.863 19.1431 17.712 18.8118C18.561 18.4805 19.3685 17.9303 20.2805 17.4035C21.1932 16.8766 21.2952 16.1809 21.316 15.2903C21.3367 14.4004 21.1919 11.4817 20.5702 9.96814C19.9492 8.45457 19.5659 7.4256 19.0891 6.54539C18.6136 5.66519 18.1933 5.13187 17.8159 4.96037C17.4378 4.79018 15.3299 3.9353 14.6309 3.9353C13.932 3.9353 13.7254 4.4225 13.7254 4.4225L13.4818 4.96102C13.4818 4.96102 11.8448 4.64986 11.0107 4.64921C10.1766 4.64921 8.51819 4.96102 8.51819 4.96102L8.27459 4.42185C8.27459 4.42185 8.06802 3.9353 7.3684 3.9353ZM7.4444 10.3975H7.47039C8.48961 10.3975 9.31525 11.2894 9.31525 12.3892C9.31525 13.4896 8.48961 14.3809 7.47039 14.3809C6.45116 14.3809 5.62552 13.4896 5.62552 12.3892C5.62487 11.2998 6.43557 10.4125 7.4444 10.3975ZM14.5296 10.3975H14.5556C15.5644 10.4125 16.3745 11.3005 16.3745 12.3892C16.3745 13.4896 15.5488 14.3809 14.5296 14.3809C13.5097 14.3809 12.6847 13.4896 12.6847 12.3892C12.6847 11.2894 13.5097 10.3975 14.5296 10.3975Z" fill="white"/>
</svg>
