<svg width="22" height="23" viewBox="0 0 22 23" fill="none" xmlns="http://www.w3.org/2000/svg">
<path fill-rule="evenodd" clip-rule="evenodd" d="M6.875 3.71436C4.59682 3.71436 2.75 5.56118 2.75 7.83936V16.0894C2.75 18.3676 4.59682 20.2144 6.875 20.2144H15.125C17.4032 20.2144 19.25 18.3676 19.25 16.0894V7.83936C19.25 5.56118 17.4032 3.71436 15.125 3.71436H6.875ZM11 8.96436C9.34314 8.96436 8 10.3075 8 11.9644C8 13.6212 9.34314 14.9644 11 14.9644C12.6568 14.9644 14 13.6212 14 11.9644C14 10.3075 12.6568 8.96436 11 8.96436ZM6.5 11.9644C6.5 9.47907 8.51472 7.46436 11 7.46436C13.4853 7.46436 15.5 9.47907 15.5 11.9644C15.5 14.4496 13.4853 16.4644 11 16.4644C8.51472 16.4644 6.5 14.4496 6.5 11.9644ZM15.5 5.96436C14.6715 5.96436 14 6.63593 14 7.46436C14 8.29278 14.6715 8.96436 15.5 8.96436C16.3285 8.96436 17 8.29278 17 7.46436C17 6.63593 16.3285 5.96436 15.5 5.96436Z" fill="white"/>
</svg>
